<?xml version="1.0" standalone="no"?>
<!DOCTYPE svg PUBLIC "-//W3C//DTD SVG 20010904//EN"
 "http://www.w3.org/TR/2001/REC-SVG-20010904/DTD/svg10.dtd">
<svg version="1.0" xmlns="http://www.w3.org/2000/svg"
 width="72.000000pt" height="72.000000pt" viewBox="0 0 72.000000 72.000000"
 preserveAspectRatio="xMidYMid meet">

<g transform="translate(0.000000,72.000000) scale(0.100000,-0.100000)"
fill="#000000" stroke="none">
<path d="M0 360 l0 -360 360 0 360 0 0 25 0 25 -336 0 -335 -1 1 335 0 336
-25 0 -25 0 0 -360z"/>
<path d="M557 636 c-79 -45 -84 -51 -56 -66 13 -7 25 -14 27 -15 6 -5 -40 -75
-50 -75 -5 0 -46 9 -91 21 l-81 20 -95 -95 c-91 -91 -95 -97 -78 -113 16 -17
22 -13 105 69 l87 87 75 -19 c41 -11 82 -20 92 -20 9 0 30 22 47 50 30 49 32
50 53 35 13 -8 26 -15 30 -15 5 0 8 38 8 85 0 47 -3 85 -7 84 -5 0 -34 -15
-66 -33z"/>
<path d="M560 428 c-18 -29 -20 -51 -20 -185 l0 -153 45 0 45 0 0 173 c0 174
-4 197 -37 197 -7 0 -22 -15 -33 -32z"/>
<path d="M302 387 l-32 -33 0 -132 0 -132 45 0 45 0 0 165 c0 183 -3 189 -58
132z"/>
<path d="M410 244 l0 -155 43 3 42 3 3 142 3 142 -38 10 c-21 6 -41 11 -45 11
-5 0 -8 -70 -8 -156z"/>
<path d="M185 270 c-16 -16 -34 -30 -39 -30 -7 0 -10 -27 -8 -75 l4 -75 38 0
39 0 3 105 c2 58 0 105 -3 105 -3 0 -18 -13 -34 -30z"/>
</g>
</svg>
