<?xml version="1.0" encoding="utf-8"?>
<!-- Generator: Adobe Illustrator 16.0.0, SVG Export Plug-In . SVG Version: 6.00 Build 0)  -->
<!DOCTYPE svg PUBLIC "-//W3C//DTD SVG 1.1//EN" "http://www.w3.org/Graphics/SVG/1.1/DTD/svg11.dtd">
<svg version="1.1" id="Layer_1" xmlns="http://www.w3.org/2000/svg" xmlns:xlink="http://www.w3.org/1999/xlink" x="0px" y="0px"
	 width="2000.5px" height="2000px" viewBox="0 0 2000.5 2000" enable-background="new 0 0 2000.5 2000" xml:space="preserve">
<g>
	<g>
		<g>
			<path d="M1825.612,1.498h-224.736l-0.37-0.314c-1.143,0.099-2.293,0.167-3.459,0.167c-0.018,0-0.034-0.002-0.052-0.002
				c-1.319,0.139-2.655,0.218-4.008,0.218c-1.23,0-2.427-0.132-3.586-0.372c-0.398-0.06-0.796-0.121-1.188-0.195
				c-0.081,0.022-0.161,0.044-0.241,0.066c-0.329,0.001-0.648,0.013-0.975,0.054c-2.075,0.266-4.161,0.246-6.216,0.009
				c-0.713,0.001-1.425,0.003-2.138,0.005h-0.542c-0.124-0.017-0.245-0.042-0.37-0.061c-1.103,0.003-2.206,0.005-3.311,0.007h-0.108
				c-0.005,0-0.01-0.002-0.015-0.002h-0.307c-0.948,0.072-1.906,0.111-2.872,0.111c-0.247,0-0.489-0.017-0.732-0.027
				c-0.209,0.004-0.411,0.027-0.621,0.027c-0.147,0-0.294-0.013-0.441-0.016c-0.231,0.004-0.463,0.016-0.695,0.016
				c-0.476,0-0.944-0.023-1.41-0.06c-1.267,0.129-2.544,0.222-3.84,0.222c-0.47,0-0.935-0.022-1.396-0.059
				c-0.632,0.032-1.267,0.059-1.906,0.059c-0.517,0-1.027-0.029-1.533-0.073c-0.765,0.046-1.535,0.073-2.311,0.073
				c-0.878,0-1.738-0.066-2.58-0.189c-1.395,0.155-2.807,0.244-4.239,0.244c-0.144,0-0.284-0.012-0.427-0.015
				c-0.165,0.001-0.327,0.015-0.493,0.015c-0.663,0-1.315-0.047-1.96-0.12c-0.14,0.001-0.279,0.011-0.422,0.011
				c-0.328,0-0.652-0.018-0.977-0.035c-0.36,0.012-0.719,0.035-1.081,0.035c-0.126,0-0.248-0.011-0.372-0.013
				c-0.702,0.038-1.406,0.068-2.117,0.068c-0.076,0-0.152-0.008-0.229-0.008c-0.501,0.023-0.998,0.062-1.503,0.062
				c-0.224,0-0.442-0.016-0.664-0.024c-0.241,0.012-0.481,0.036-0.725,0.043c-0.004,0-0.007,0.001-0.011,0.001l0.087,0.073H463.685
				l0.117-0.1c-0.517,0.001-1.035,0.002-1.552,0.003c-0.455,0.082-0.909,0.167-1.369,0.206c-2.357,0.303-4.667,0.24-6.941-0.101
				c-0.854,0.002-1.707,0.004-2.561,0.005c-1.28,0.129-2.574,0.219-3.886,0.219c-0.523,0-1.037-0.036-1.545-0.089
				c-1.24,0.117-2.491,0.196-3.759,0.196c-0.629,0-1.247-0.044-1.857-0.108c-0.688-0.001-1.362-0.051-2.028-0.128
				c-0.185,0.003-0.368,0.021-0.552,0.021c-1.237,0-2.438-0.133-3.603-0.375c-0.53,0.021-1.059,0.05-1.593,0.05
				c-0.587,0-1.163-0.046-1.732-0.108h-1.112c-0.181,0.033-0.363,0.069-0.548,0.095c-2.189,0.005-4.379,0.009-6.568,0.014h-0.108
				c-0.218-0.029-0.429-0.072-0.646-0.106c-1.25,0.127-2.512,0.215-3.793,0.215c-0.823,0-1.624-0.084-2.414-0.2
				c-0.885,0.059-1.776,0.091-2.673,0.091c-0.239,0-0.474-0.016-0.711-0.025c-0.304,0.009-0.606,0.025-0.913,0.025
				c-0.22,0-0.436-0.015-0.653-0.023c-0.252,0.005-0.501,0.023-0.754,0.023c-0.096,0-0.19-0.009-0.287-0.011
				c-0.979,0.073-1.965,0.12-2.961,0.12c-0.449,0-0.892-0.019-1.332-0.051c-1.449,0.164-2.917,0.268-4.405,0.268
				c-0.675,0-1.338-0.049-1.992-0.124H176.333C80.204,1.498,2,79.701,2,175.831V1824.85c0,96.39,78.204,174.334,174.333,174.334
				h1452.083l371.27-371.27V175.831C1999.945,79.701,1921.742,1.498,1825.612,1.498z M1561.385,131.143
				c51.702,0,93.791,41.83,93.791,93.792c0,51.702-42.089,93.791-93.791,93.791c-51.703,0-93.792-42.089-93.792-93.791
				C1467.593,173.233,1509.682,131.143,1561.385,131.143z M1281.048,131.143c51.963,0,94.052,41.83,94.052,93.792
				c0,51.702-42.089,93.791-94.052,93.791c-51.702,0-93.531-42.089-93.531-93.791
				C1187.517,173.233,1229.346,131.143,1281.048,131.143z M1000.973,131.143c51.702,0,93.792,41.83,93.792,93.792
				c0,51.702-42.09,93.791-93.792,93.791s-93.792-42.089-93.792-93.791C907.181,173.233,949.271,131.143,1000.973,131.143z
				 M721.156,131.143c51.704,0,93.532,41.83,93.532,93.792c0,51.702-41.829,93.791-93.532,93.791
				c-51.962,0-94.05-42.089-94.05-93.791C627.105,173.233,669.194,131.143,721.156,131.143z M440.82,131.143
				c51.702,0,93.792,42.09,93.792,93.792c0,51.702-42.089,93.791-93.792,93.791s-93.792-42.089-93.792-93.791
				C347.028,172.973,389.118,131.143,440.82,131.143z M1904.854,1588.683l-19.746,19.484h-141.076v-0.12
				c-0.885,0.078-1.776,0.131-2.679,0.131c-1.454,0-2.846-0.236-4.166-0.658c-0.158-0.035-0.317-0.067-0.474-0.108
				c-0.78,0.06-1.566,0.1-2.36,0.1c-0.475,0-0.941-0.033-1.403-0.081c-0.64,0.044-1.28,0.081-1.93,0.081
				c-0.988,0-1.944-0.116-2.873-0.318c-0.761,0.046-1.425,0.089-1.664,0.123c-2.271,0.319-4.53,0.688-6.789,1.078
				c-0.283,0.049-0.566,0.085-0.85,0.131c-2.965,0.587-5.919,1.228-8.847,1.976c-0.824,0.211-1.341,0.339-1.648,0.41
				c-0.158,0.047-0.33,0.098-0.52,0.153c-1.796,0.526-3.592,1.055-5.375,1.623c-12.416,3.956-24.976,8.449-36.863,13.941
				c-0.317,0.218-0.639,0.429-0.953,0.649c-3.729,2.626-7.306,5.461-10.614,8.606c-0.877,0.834-1.746,1.675-2.604,2.527
				c-0.188,0.201-0.471,0.501-0.852,0.903c-1.492,1.622-2.974,3.255-4.434,4.906c-2.977,3.367-5.912,6.774-8.954,10.083
				c-0.783,0.853-1.587,1.685-2.38,2.526c-2.962,4.678-6.102,9.2-9.327,13.796c-0.76,1.083-1.511,2.174-2.248,3.272
				c-0.348,0.866-0.737,1.696-1.195,2.464c-0.392,1.565-0.942,3.001-1.642,4.305c-0.341,2.107-0.959,3.999-1.816,5.681
				c-0.035,0.256-0.061,0.513-0.098,0.769c-0.831,5.631-2.195,10.936-4.551,15.744c-0.021,0.264-0.045,0.526-0.078,0.786
				c-0.36,2.787-1.209,5.205-2.427,7.28c-0.077,0.389-0.14,0.778-0.228,1.166h0.337c0,0-2.338,15.069-2.338,22.862v149.393
				l-19.746,19.745H176.594c-43.649,0-79.243-35.594-79.243-79.243V429.666h1807.503V1588.683z"/>
		</g>
	</g>
</g>
<g>
	<g transform="translate(0.000000,511.000000) scale(0.100000,-0.100000)">
		<path d="M14104.789-1252.372c-948.115-46.396-967.178-49.16-1030.005-111.982c-32.856-35.479-71.094-98.428-79.248-139.307
			c-16.426-65.586,8.154-103.828,207.661-314.248c125.64-131.162,305.962-316.875,404.399-409.785l180.322-169.414
			l-2308.794-2308.789c-1270.513-1270.381-2319.702-2311.426-2336.128-2311.426c-16.431,0-647.544,622.969-1407.07,1382.49
			c-926.167,928.936-1415.209,1398.916-1489.072,1434.404c-122.886,57.305-245.898,65.586-360.635,24.58
			c-101.069-38.252-2871.572-2803.232-2920.722-2915.205c-51.914-120.254-46.396-245.898,13.672-377.07
			c60.059-128.398,256.807-325.146,366.152-366.152c98.311-38.242,267.715-38.242,366.157-2.754
			c41.006,16.426,587.485,538.193,1210.317,1161.152L6055.625-5542.05l1393.398-1396.016
			c934.453-937.089,1428.886-1412.587,1502.744-1448.075c139.321-65.586,243.14-65.586,382.461,0
			c73.73,35.488,909.868,852.441,2663.901,2609.237c1404.443,1407.07,2565.601,2557.324,2581.904,2557.324
			c13.667,0,199.502-174.805,415.313-385.215c371.547-368.789,393.363-385.215,475.375-368.789
			c229.473,46.387,232.227,57.432,297.813,1404.307c51.914,1054.707,51.914,1188.496,16.426,1259.6
			c-21.816,41.006-62.822,84.639-84.629,95.684C15632.107-1189.55,15175.8-1200.458,14104.789-1252.372z"/>
		<path d="M13847.978-4689.472l-729.551-729.551v-2617.519v-2614.765h928.931h928.936v3150.205v3150.322l-199.38,196.875
			l-196.753,196.748L13847.978-4689.472z"/>
		<path d="M11716.747-6820.575l-920.781-920.781v-1456.22v-1453.594h928.926h928.936v2377.002
			c0,1308.759-2.764,2377.001-8.145,2377.001C12643.051-5897.167,12224.979-6312.343,11716.747-6820.575z"/>
		<path d="M6178.51-8541.883v-2109.287h928.936h928.93v1182.979v1180.361l-928.93,928.925L6178.51-6429.97V-8541.883z"/>
		<path d="M4894.458-7462.596c-573.809-571.055-838.77-814.199-920.776-852.578l-117.505-49.15v-1158.408v-1155.771h915.269
			c707.612,0,920.781,8.145,928.931,35.488c8.154,16.426,10.913,920.781,8.154,2005.449l-8.154,1972.733L4894.458-7462.596z"/>
		<path d="M10017.382-8514.549c-322.388-316.865-458.945-398.887-724.033-448.037c-243.14-41.006-502.71,21.953-743.223,180.322
			l-76.494,49.15v-959.033v-959.023h928.936h928.936v1215.84c0,669.365-2.764,1215.84-5.522,1215.84
			C10320.59-8219.49,10184.037-8353.289,10017.382-8514.549z"/>
	</g>
</g>
</svg>
